<mxfile host="app.diagrams.net" modified="2023-10-20T16:10:26.421Z" agent="Mozilla/5.0 (Windows NT 10.0; Win64; x64) AppleWebKit/537.36 (KHTML, like Gecko) Chrome/118.0.0.0 Safari/537.36" etag="6sv6ogV_JfQGgq-TB-SP" version="22.0.6" type="google">
  <diagram name="Page-1" id="dN5VNn7rvPmYK_kSa2Q4">
    <mxGraphModel grid="1" page="1" gridSize="10" guides="1" tooltips="1" connect="1" arrows="1" fold="1" pageScale="1" pageWidth="850" pageHeight="1100" math="0" shadow="0">
      <root>
        <mxCell id="0" />
        <mxCell id="1" parent="0" />
        <mxCell id="zBCeF6488wJhwsteYWtZ-3" style="edgeStyle=orthogonalEdgeStyle;rounded=0;orthogonalLoop=1;jettySize=auto;html=1;exitX=1;exitY=0.5;exitDx=0;exitDy=0;entryX=0.232;entryY=0.055;entryDx=0;entryDy=0;curved=1;entryPerimeter=0;" edge="1" parent="1" source="zBCeF6488wJhwsteYWtZ-1" target="zBCeF6488wJhwsteYWtZ-2">
          <mxGeometry relative="1" as="geometry">
            <Array as="points">
              <mxPoint x="255" y="165" />
              <mxPoint x="255" y="170" />
              <mxPoint x="313" y="170" />
            </Array>
          </mxGeometry>
        </mxCell>
        <mxCell id="zBCeF6488wJhwsteYWtZ-4" value="Start Game" style="edgeLabel;html=1;align=center;verticalAlign=middle;resizable=0;points=[];" connectable="0" vertex="1" parent="zBCeF6488wJhwsteYWtZ-3">
          <mxGeometry x="-0.1616" relative="1" as="geometry">
            <mxPoint as="offset" />
          </mxGeometry>
        </mxCell>
        <mxCell id="zBCeF6488wJhwsteYWtZ-1" value="User" style="html=1;whiteSpace=wrap;" vertex="1" parent="1">
          <mxGeometry x="120" y="140" width="110" height="50" as="geometry" />
        </mxCell>
        <mxCell id="zBCeF6488wJhwsteYWtZ-6" style="edgeStyle=orthogonalEdgeStyle;rounded=0;orthogonalLoop=1;jettySize=auto;html=1;exitX=0;exitY=1;exitDx=0;exitDy=0;entryX=0.5;entryY=0;entryDx=0;entryDy=0;curved=1;" edge="1" parent="1" source="zBCeF6488wJhwsteYWtZ-2" target="zBCeF6488wJhwsteYWtZ-5">
          <mxGeometry relative="1" as="geometry" />
        </mxCell>
        <mxCell id="zBCeF6488wJhwsteYWtZ-7" value="Play blackjack" style="edgeLabel;html=1;align=center;verticalAlign=middle;resizable=0;points=[];" connectable="0" vertex="1" parent="zBCeF6488wJhwsteYWtZ-6">
          <mxGeometry x="0.0762" y="-2" relative="1" as="geometry">
            <mxPoint as="offset" />
          </mxGeometry>
        </mxCell>
        <mxCell id="zBCeF6488wJhwsteYWtZ-41" style="edgeStyle=orthogonalEdgeStyle;rounded=0;orthogonalLoop=1;jettySize=auto;html=1;entryX=0;entryY=0.5;entryDx=0;entryDy=0;curved=1;" edge="1" parent="1" source="zBCeF6488wJhwsteYWtZ-2" target="zBCeF6488wJhwsteYWtZ-36">
          <mxGeometry relative="1" as="geometry" />
        </mxCell>
        <mxCell id="zBCeF6488wJhwsteYWtZ-42" value="Open Shop" style="edgeLabel;html=1;align=center;verticalAlign=middle;resizable=0;points=[];" connectable="0" vertex="1" parent="zBCeF6488wJhwsteYWtZ-41">
          <mxGeometry x="-0.0991" y="-2" relative="1" as="geometry">
            <mxPoint as="offset" />
          </mxGeometry>
        </mxCell>
        <mxCell id="zBCeF6488wJhwsteYWtZ-67" style="edgeStyle=orthogonalEdgeStyle;rounded=0;orthogonalLoop=1;jettySize=auto;html=1;entryX=0.085;entryY=0.819;entryDx=0;entryDy=0;exitX=0.706;exitY=0.011;exitDx=0;exitDy=0;exitPerimeter=0;curved=1;entryPerimeter=0;" edge="1" parent="1" source="zBCeF6488wJhwsteYWtZ-2" target="zBCeF6488wJhwsteYWtZ-64">
          <mxGeometry relative="1" as="geometry">
            <Array as="points">
              <mxPoint x="379" y="70" />
              <mxPoint x="477" y="70" />
            </Array>
          </mxGeometry>
        </mxCell>
        <mxCell id="zBCeF6488wJhwsteYWtZ-68" value="Begin cooking section" style="edgeLabel;html=1;align=center;verticalAlign=middle;resizable=0;points=[];" connectable="0" vertex="1" parent="zBCeF6488wJhwsteYWtZ-67">
          <mxGeometry x="-0.111" y="3" relative="1" as="geometry">
            <mxPoint as="offset" />
          </mxGeometry>
        </mxCell>
        <mxCell id="zBCeF6488wJhwsteYWtZ-2" value="Display main Restaurant View screen" style="ellipse;whiteSpace=wrap;html=1;" vertex="1" parent="1">
          <mxGeometry x="280" y="180" width="140" height="70" as="geometry" />
        </mxCell>
        <mxCell id="zBCeF6488wJhwsteYWtZ-11" style="edgeStyle=orthogonalEdgeStyle;rounded=0;orthogonalLoop=1;jettySize=auto;html=1;exitX=0;exitY=1;exitDx=0;exitDy=0;entryX=0.5;entryY=0;entryDx=0;entryDy=0;curved=1;" edge="1" parent="1" source="zBCeF6488wJhwsteYWtZ-5" target="zBCeF6488wJhwsteYWtZ-10">
          <mxGeometry relative="1" as="geometry" />
        </mxCell>
        <mxCell id="zBCeF6488wJhwsteYWtZ-14" value="Generate dealer hand" style="edgeLabel;html=1;align=center;verticalAlign=middle;resizable=0;points=[];" connectable="0" vertex="1" parent="zBCeF6488wJhwsteYWtZ-11">
          <mxGeometry x="-0.0212" y="2" relative="1" as="geometry">
            <mxPoint as="offset" />
          </mxGeometry>
        </mxCell>
        <mxCell id="zBCeF6488wJhwsteYWtZ-12" style="edgeStyle=orthogonalEdgeStyle;rounded=0;orthogonalLoop=1;jettySize=auto;html=1;exitX=1;exitY=1;exitDx=0;exitDy=0;curved=1;" edge="1" parent="1" source="zBCeF6488wJhwsteYWtZ-5" target="zBCeF6488wJhwsteYWtZ-9">
          <mxGeometry relative="1" as="geometry" />
        </mxCell>
        <mxCell id="zBCeF6488wJhwsteYWtZ-13" value="Generate player hand" style="edgeLabel;html=1;align=center;verticalAlign=middle;resizable=0;points=[];" connectable="0" vertex="1" parent="zBCeF6488wJhwsteYWtZ-12">
          <mxGeometry x="0.0918" relative="1" as="geometry">
            <mxPoint as="offset" />
          </mxGeometry>
        </mxCell>
        <mxCell id="zBCeF6488wJhwsteYWtZ-31" style="edgeStyle=orthogonalEdgeStyle;rounded=0;orthogonalLoop=1;jettySize=auto;html=1;entryX=1;entryY=0;entryDx=0;entryDy=0;curved=1;" edge="1" parent="1" source="zBCeF6488wJhwsteYWtZ-5" target="zBCeF6488wJhwsteYWtZ-25">
          <mxGeometry relative="1" as="geometry">
            <Array as="points">
              <mxPoint x="430" y="325" />
              <mxPoint x="430" y="670" />
            </Array>
          </mxGeometry>
        </mxCell>
        <mxCell id="zBCeF6488wJhwsteYWtZ-32" value="Choose bet amount" style="edgeLabel;html=1;align=center;verticalAlign=middle;resizable=0;points=[];" connectable="0" vertex="1" parent="zBCeF6488wJhwsteYWtZ-31">
          <mxGeometry x="0.0351" y="-27" relative="1" as="geometry">
            <mxPoint as="offset" />
          </mxGeometry>
        </mxCell>
        <mxCell id="zBCeF6488wJhwsteYWtZ-5" value="Display Blackjack screen" style="ellipse;whiteSpace=wrap;html=1;" vertex="1" parent="1">
          <mxGeometry x="110" y="290" width="140" height="70" as="geometry" />
        </mxCell>
        <mxCell id="zBCeF6488wJhwsteYWtZ-20" style="edgeStyle=orthogonalEdgeStyle;rounded=0;orthogonalLoop=1;jettySize=auto;html=1;exitX=0.806;exitY=0.082;exitDx=0;exitDy=0;entryX=0.394;entryY=0.972;entryDx=0;entryDy=0;curved=1;entryPerimeter=0;exitPerimeter=0;" edge="1" parent="1" source="zBCeF6488wJhwsteYWtZ-8" target="zBCeF6488wJhwsteYWtZ-9">
          <mxGeometry relative="1" as="geometry">
            <mxPoint x="230.0000000000001" y="670" as="sourcePoint" />
            <mxPoint x="340" y="500" as="targetPoint" />
            <Array as="points">
              <mxPoint x="240" y="576" />
              <mxPoint x="240" y="550" />
              <mxPoint x="270" y="550" />
              <mxPoint x="270" y="500" />
              <mxPoint x="273" y="500" />
            </Array>
          </mxGeometry>
        </mxCell>
        <mxCell id="zBCeF6488wJhwsteYWtZ-22" value="Update hand" style="edgeLabel;html=1;align=center;verticalAlign=middle;resizable=0;points=[];" connectable="0" vertex="1" parent="zBCeF6488wJhwsteYWtZ-20">
          <mxGeometry x="0.2231" y="1" relative="1" as="geometry">
            <mxPoint as="offset" />
          </mxGeometry>
        </mxCell>
        <mxCell id="zBCeF6488wJhwsteYWtZ-21" style="edgeStyle=orthogonalEdgeStyle;rounded=0;orthogonalLoop=1;jettySize=auto;html=1;exitX=0;exitY=0;exitDx=0;exitDy=0;entryX=0.112;entryY=1.068;entryDx=0;entryDy=0;curved=1;entryPerimeter=0;" edge="1" parent="1" source="zBCeF6488wJhwsteYWtZ-8" target="zBCeF6488wJhwsteYWtZ-10">
          <mxGeometry relative="1" as="geometry">
            <mxPoint x="120" y="630" as="sourcePoint" />
            <mxPoint x="110" y="460" as="targetPoint" />
          </mxGeometry>
        </mxCell>
        <mxCell id="zBCeF6488wJhwsteYWtZ-23" value="Update hand" style="edgeLabel;html=1;align=center;verticalAlign=middle;resizable=0;points=[];" connectable="0" vertex="1" parent="zBCeF6488wJhwsteYWtZ-21">
          <mxGeometry x="0.3007" y="-2" relative="1" as="geometry">
            <mxPoint as="offset" />
          </mxGeometry>
        </mxCell>
        <mxCell id="zBCeF6488wJhwsteYWtZ-8" value="Add card" style="ellipse;whiteSpace=wrap;html=1;" vertex="1" parent="1">
          <mxGeometry x="90" y="570" width="140" height="70" as="geometry" />
        </mxCell>
        <mxCell id="zBCeF6488wJhwsteYWtZ-17" style="edgeStyle=orthogonalEdgeStyle;rounded=0;orthogonalLoop=1;jettySize=auto;html=1;curved=1;entryX=0.5;entryY=0;entryDx=0;entryDy=0;exitX=0.099;exitY=1.087;exitDx=0;exitDy=0;exitPerimeter=0;" edge="1" parent="1" source="zBCeF6488wJhwsteYWtZ-9" target="zBCeF6488wJhwsteYWtZ-8">
          <mxGeometry relative="1" as="geometry">
            <mxPoint x="220" y="540" as="targetPoint" />
            <mxPoint x="240" y="490" as="sourcePoint" />
          </mxGeometry>
        </mxCell>
        <mxCell id="zBCeF6488wJhwsteYWtZ-18" value="Hit" style="edgeLabel;html=1;align=center;verticalAlign=middle;resizable=0;points=[];" connectable="0" vertex="1" parent="zBCeF6488wJhwsteYWtZ-17">
          <mxGeometry x="-0.2703" y="-5" relative="1" as="geometry">
            <mxPoint as="offset" />
          </mxGeometry>
        </mxCell>
        <mxCell id="zBCeF6488wJhwsteYWtZ-28" style="edgeStyle=orthogonalEdgeStyle;rounded=0;orthogonalLoop=1;jettySize=auto;html=1;entryX=0.5;entryY=0;entryDx=0;entryDy=0;curved=1;" edge="1" parent="1" source="zBCeF6488wJhwsteYWtZ-9" target="zBCeF6488wJhwsteYWtZ-25">
          <mxGeometry relative="1" as="geometry" />
        </mxCell>
        <mxCell id="zBCeF6488wJhwsteYWtZ-29" value="Stand" style="edgeLabel;html=1;align=center;verticalAlign=middle;resizable=0;points=[];" connectable="0" vertex="1" parent="zBCeF6488wJhwsteYWtZ-28">
          <mxGeometry x="-0.0141" y="-1" relative="1" as="geometry">
            <mxPoint as="offset" />
          </mxGeometry>
        </mxCell>
        <mxCell id="zBCeF6488wJhwsteYWtZ-9" value="Player hand" style="html=1;whiteSpace=wrap;" vertex="1" parent="1">
          <mxGeometry x="230" y="410" width="110" height="50" as="geometry" />
        </mxCell>
        <mxCell id="zBCeF6488wJhwsteYWtZ-16" style="edgeStyle=orthogonalEdgeStyle;rounded=0;orthogonalLoop=1;jettySize=auto;html=1;exitX=0.831;exitY=1.03;exitDx=0;exitDy=0;curved=1;exitPerimeter=0;" edge="1" parent="1" source="zBCeF6488wJhwsteYWtZ-10" target="zBCeF6488wJhwsteYWtZ-8">
          <mxGeometry relative="1" as="geometry" />
        </mxCell>
        <mxCell id="zBCeF6488wJhwsteYWtZ-19" value="Hit" style="edgeLabel;html=1;align=center;verticalAlign=middle;resizable=0;points=[];" connectable="0" vertex="1" parent="zBCeF6488wJhwsteYWtZ-16">
          <mxGeometry x="-0.2123" y="2" relative="1" as="geometry">
            <mxPoint as="offset" />
          </mxGeometry>
        </mxCell>
        <mxCell id="zBCeF6488wJhwsteYWtZ-26" style="edgeStyle=orthogonalEdgeStyle;rounded=0;orthogonalLoop=1;jettySize=auto;html=1;entryX=0;entryY=0.5;entryDx=0;entryDy=0;curved=1;" edge="1" parent="1" source="zBCeF6488wJhwsteYWtZ-10" target="zBCeF6488wJhwsteYWtZ-25">
          <mxGeometry relative="1" as="geometry">
            <Array as="points">
              <mxPoint x="50" y="435" />
              <mxPoint x="50" y="695" />
            </Array>
          </mxGeometry>
        </mxCell>
        <mxCell id="zBCeF6488wJhwsteYWtZ-27" value="Stand" style="edgeLabel;html=1;align=center;verticalAlign=middle;resizable=0;points=[];" connectable="0" vertex="1" parent="zBCeF6488wJhwsteYWtZ-26">
          <mxGeometry x="-0.1645" y="18" relative="1" as="geometry">
            <mxPoint as="offset" />
          </mxGeometry>
        </mxCell>
        <mxCell id="zBCeF6488wJhwsteYWtZ-10" value="Dealer hand" style="html=1;whiteSpace=wrap;" vertex="1" parent="1">
          <mxGeometry x="80" y="410" width="110" height="50" as="geometry" />
        </mxCell>
        <mxCell id="zBCeF6488wJhwsteYWtZ-37" style="edgeStyle=orthogonalEdgeStyle;rounded=0;orthogonalLoop=1;jettySize=auto;html=1;entryX=0;entryY=0.5;entryDx=0;entryDy=0;curved=1;" edge="1" parent="1" source="zBCeF6488wJhwsteYWtZ-25" target="zBCeF6488wJhwsteYWtZ-5">
          <mxGeometry relative="1" as="geometry">
            <Array as="points">
              <mxPoint x="10" y="720" />
              <mxPoint x="10" y="325" />
            </Array>
          </mxGeometry>
        </mxCell>
        <mxCell id="zBCeF6488wJhwsteYWtZ-38" value="Choose Play Again" style="edgeLabel;html=1;align=center;verticalAlign=middle;resizable=0;points=[];" connectable="0" vertex="1" parent="zBCeF6488wJhwsteYWtZ-37">
          <mxGeometry x="-0.5338" y="-24" relative="1" as="geometry">
            <mxPoint as="offset" />
          </mxGeometry>
        </mxCell>
        <mxCell id="zBCeF6488wJhwsteYWtZ-25" value="Calculate win/loss" style="ellipse;whiteSpace=wrap;html=1;" vertex="1" parent="1">
          <mxGeometry x="285" y="660" width="140" height="70" as="geometry" />
        </mxCell>
        <mxCell id="zBCeF6488wJhwsteYWtZ-33" value="Currency amount" style="html=1;whiteSpace=wrap;" vertex="1" parent="1">
          <mxGeometry x="480" y="390" width="110" height="50" as="geometry" />
        </mxCell>
        <mxCell id="zBCeF6488wJhwsteYWtZ-34" style="edgeStyle=orthogonalEdgeStyle;rounded=0;orthogonalLoop=1;jettySize=auto;html=1;entryX=0.32;entryY=1.068;entryDx=0;entryDy=0;entryPerimeter=0;curved=1;" edge="1" parent="1" source="zBCeF6488wJhwsteYWtZ-25" target="zBCeF6488wJhwsteYWtZ-33">
          <mxGeometry relative="1" as="geometry" />
        </mxCell>
        <mxCell id="zBCeF6488wJhwsteYWtZ-35" value="Update amount of currency" style="edgeLabel;html=1;align=center;verticalAlign=middle;resizable=0;points=[];" connectable="0" vertex="1" parent="zBCeF6488wJhwsteYWtZ-34">
          <mxGeometry x="0.0193" y="16" relative="1" as="geometry">
            <mxPoint as="offset" />
          </mxGeometry>
        </mxCell>
        <mxCell id="zBCeF6488wJhwsteYWtZ-45" style="edgeStyle=orthogonalEdgeStyle;rounded=0;orthogonalLoop=1;jettySize=auto;html=1;exitX=0.5;exitY=0;exitDx=0;exitDy=0;entryX=0;entryY=0.25;entryDx=0;entryDy=0;curved=1;" edge="1" parent="1" source="zBCeF6488wJhwsteYWtZ-36" target="zBCeF6488wJhwsteYWtZ-44">
          <mxGeometry relative="1" as="geometry" />
        </mxCell>
        <mxCell id="zBCeF6488wJhwsteYWtZ-46" value="Retrieve available items" style="edgeLabel;html=1;align=center;verticalAlign=middle;resizable=0;points=[];" connectable="0" vertex="1" parent="zBCeF6488wJhwsteYWtZ-45">
          <mxGeometry x="0.1749" relative="1" as="geometry">
            <mxPoint as="offset" />
          </mxGeometry>
        </mxCell>
        <mxCell id="zBCeF6488wJhwsteYWtZ-65" style="edgeStyle=orthogonalEdgeStyle;rounded=0;orthogonalLoop=1;jettySize=auto;html=1;entryX=1;entryY=0;entryDx=0;entryDy=0;exitX=0.206;exitY=0.011;exitDx=0;exitDy=0;exitPerimeter=0;curved=1;" edge="1" parent="1" source="zBCeF6488wJhwsteYWtZ-36" target="zBCeF6488wJhwsteYWtZ-2">
          <mxGeometry relative="1" as="geometry" />
        </mxCell>
        <mxCell id="zBCeF6488wJhwsteYWtZ-66" value="Return to restaurant" style="edgeLabel;html=1;align=center;verticalAlign=middle;resizable=0;points=[];" connectable="0" vertex="1" parent="zBCeF6488wJhwsteYWtZ-65">
          <mxGeometry x="-0.1423" y="4" relative="1" as="geometry">
            <mxPoint as="offset" />
          </mxGeometry>
        </mxCell>
        <mxCell id="zBCeF6488wJhwsteYWtZ-36" value="Display Shop" style="ellipse;whiteSpace=wrap;html=1;" vertex="1" parent="1">
          <mxGeometry x="520" y="110" width="140" height="70" as="geometry" />
        </mxCell>
        <mxCell id="zBCeF6488wJhwsteYWtZ-39" style="edgeStyle=orthogonalEdgeStyle;rounded=0;orthogonalLoop=1;jettySize=auto;html=1;entryX=0.002;entryY=0.362;entryDx=0;entryDy=0;entryPerimeter=0;curved=1;" edge="1" parent="1" source="zBCeF6488wJhwsteYWtZ-25" target="zBCeF6488wJhwsteYWtZ-2">
          <mxGeometry relative="1" as="geometry">
            <Array as="points">
              <mxPoint x="355" y="740" />
              <mxPoint x="-40" y="740" />
              <mxPoint x="-40" y="230" />
              <mxPoint x="260" y="230" />
              <mxPoint x="260" y="205" />
            </Array>
          </mxGeometry>
        </mxCell>
        <mxCell id="zBCeF6488wJhwsteYWtZ-40" value="Choose Return to Restaurant" style="edgeLabel;html=1;align=center;verticalAlign=middle;resizable=0;points=[];" connectable="0" vertex="1" parent="zBCeF6488wJhwsteYWtZ-39">
          <mxGeometry x="-0.7439" y="4" relative="1" as="geometry">
            <mxPoint as="offset" />
          </mxGeometry>
        </mxCell>
        <mxCell id="zBCeF6488wJhwsteYWtZ-62" style="edgeStyle=orthogonalEdgeStyle;rounded=0;orthogonalLoop=1;jettySize=auto;html=1;exitX=0;exitY=0;exitDx=0;exitDy=0;entryX=0.5;entryY=0;entryDx=0;entryDy=0;curved=1;" edge="1" parent="1" source="zBCeF6488wJhwsteYWtZ-43" target="zBCeF6488wJhwsteYWtZ-51">
          <mxGeometry relative="1" as="geometry">
            <Array as="points">
              <mxPoint x="590" y="261" />
              <mxPoint x="590" y="230" />
              <mxPoint x="495" y="230" />
            </Array>
          </mxGeometry>
        </mxCell>
        <mxCell id="zBCeF6488wJhwsteYWtZ-63" value="Purchase Item" style="edgeLabel;html=1;align=center;verticalAlign=middle;resizable=0;points=[];" connectable="0" vertex="1" parent="zBCeF6488wJhwsteYWtZ-62">
          <mxGeometry x="0.0062" y="6" relative="1" as="geometry">
            <mxPoint as="offset" />
          </mxGeometry>
        </mxCell>
        <mxCell id="zBCeF6488wJhwsteYWtZ-43" value="Display Items" style="ellipse;whiteSpace=wrap;html=1;" vertex="1" parent="1">
          <mxGeometry x="640" y="250" width="140" height="70" as="geometry" />
        </mxCell>
        <mxCell id="zBCeF6488wJhwsteYWtZ-47" style="edgeStyle=orthogonalEdgeStyle;rounded=0;orthogonalLoop=1;jettySize=auto;html=1;curved=1;" edge="1" parent="1" source="zBCeF6488wJhwsteYWtZ-44" target="zBCeF6488wJhwsteYWtZ-43">
          <mxGeometry relative="1" as="geometry" />
        </mxCell>
        <mxCell id="zBCeF6488wJhwsteYWtZ-50" value="Item details" style="edgeLabel;html=1;align=center;verticalAlign=middle;resizable=0;points=[];" connectable="0" vertex="1" parent="zBCeF6488wJhwsteYWtZ-47">
          <mxGeometry x="0.0553" relative="1" as="geometry">
            <mxPoint as="offset" />
          </mxGeometry>
        </mxCell>
        <mxCell id="zBCeF6488wJhwsteYWtZ-44" value="Inventory database" style="html=1;whiteSpace=wrap;" vertex="1" parent="1">
          <mxGeometry x="740" y="90" width="110" height="50" as="geometry" />
        </mxCell>
        <mxCell id="zBCeF6488wJhwsteYWtZ-48" style="edgeStyle=orthogonalEdgeStyle;rounded=0;orthogonalLoop=1;jettySize=auto;html=1;entryX=0.217;entryY=0.059;entryDx=0;entryDy=0;entryPerimeter=0;curved=1;" edge="1" parent="1" source="zBCeF6488wJhwsteYWtZ-36" target="zBCeF6488wJhwsteYWtZ-43">
          <mxGeometry relative="1" as="geometry" />
        </mxCell>
        <mxCell id="zBCeF6488wJhwsteYWtZ-49" value="Select shop submenu" style="edgeLabel;html=1;align=center;verticalAlign=middle;resizable=0;points=[];" connectable="0" vertex="1" parent="zBCeF6488wJhwsteYWtZ-48">
          <mxGeometry x="-0.3328" y="1" relative="1" as="geometry">
            <mxPoint as="offset" />
          </mxGeometry>
        </mxCell>
        <mxCell id="zBCeF6488wJhwsteYWtZ-53" style="edgeStyle=orthogonalEdgeStyle;rounded=0;orthogonalLoop=1;jettySize=auto;html=1;entryX=0.5;entryY=1;entryDx=0;entryDy=0;curved=1;exitX=1.036;exitY=0.646;exitDx=0;exitDy=0;exitPerimeter=0;" edge="1" parent="1" source="zBCeF6488wJhwsteYWtZ-51" target="zBCeF6488wJhwsteYWtZ-52">
          <mxGeometry relative="1" as="geometry">
            <Array as="points">
              <mxPoint x="630" y="295" />
              <mxPoint x="630" y="380" />
              <mxPoint x="810" y="380" />
              <mxPoint x="810" y="270" />
              <mxPoint x="865" y="270" />
            </Array>
          </mxGeometry>
        </mxCell>
        <mxCell id="zBCeF6488wJhwsteYWtZ-54" value="Add new item" style="edgeLabel;html=1;align=center;verticalAlign=middle;resizable=0;points=[];" connectable="0" vertex="1" parent="zBCeF6488wJhwsteYWtZ-53">
          <mxGeometry x="-0.0972" y="18" relative="1" as="geometry">
            <mxPoint x="-14" y="18" as="offset" />
          </mxGeometry>
        </mxCell>
        <mxCell id="zBCeF6488wJhwsteYWtZ-60" style="edgeStyle=orthogonalEdgeStyle;rounded=0;orthogonalLoop=1;jettySize=auto;html=1;entryX=0.75;entryY=0;entryDx=0;entryDy=0;exitX=0.782;exitY=0.963;exitDx=0;exitDy=0;exitPerimeter=0;curved=1;" edge="1" parent="1" source="zBCeF6488wJhwsteYWtZ-51" target="zBCeF6488wJhwsteYWtZ-33">
          <mxGeometry relative="1" as="geometry">
            <Array as="points">
              <mxPoint x="535" y="320" />
              <mxPoint x="590" y="320" />
              <mxPoint x="590" y="350" />
              <mxPoint x="563" y="350" />
            </Array>
          </mxGeometry>
        </mxCell>
        <mxCell id="zBCeF6488wJhwsteYWtZ-61" value="Update currency" style="edgeLabel;html=1;align=center;verticalAlign=middle;resizable=0;points=[];" connectable="0" vertex="1" parent="zBCeF6488wJhwsteYWtZ-60">
          <mxGeometry x="0.2225" relative="1" as="geometry">
            <mxPoint as="offset" />
          </mxGeometry>
        </mxCell>
        <mxCell id="zBCeF6488wJhwsteYWtZ-51" value="Purchase Item" style="ellipse;whiteSpace=wrap;html=1;" vertex="1" parent="1">
          <mxGeometry x="425" y="250" width="140" height="70" as="geometry" />
        </mxCell>
        <mxCell id="zBCeF6488wJhwsteYWtZ-52" value="User&#39;s purchased Items" style="html=1;whiteSpace=wrap;" vertex="1" parent="1">
          <mxGeometry x="810" y="190" width="110" height="50" as="geometry" />
        </mxCell>
        <mxCell id="zBCeF6488wJhwsteYWtZ-55" style="edgeStyle=orthogonalEdgeStyle;rounded=0;orthogonalLoop=1;jettySize=auto;html=1;exitX=0;exitY=0;exitDx=0;exitDy=0;entryX=0.162;entryY=-0.007;entryDx=0;entryDy=0;entryPerimeter=0;curved=1;" edge="1" parent="1" source="zBCeF6488wJhwsteYWtZ-51" target="zBCeF6488wJhwsteYWtZ-33">
          <mxGeometry relative="1" as="geometry">
            <Array as="points">
              <mxPoint x="420" y="261" />
              <mxPoint x="420" y="281" />
              <mxPoint x="410" y="281" />
              <mxPoint x="410" y="365" />
              <mxPoint x="498" y="365" />
            </Array>
          </mxGeometry>
        </mxCell>
        <mxCell id="zBCeF6488wJhwsteYWtZ-56" value="Verivy sufficient funds" style="edgeLabel;html=1;align=center;verticalAlign=middle;resizable=0;points=[];" connectable="0" vertex="1" parent="zBCeF6488wJhwsteYWtZ-55">
          <mxGeometry x="0.1238" y="-1" relative="1" as="geometry">
            <mxPoint x="13" y="-16" as="offset" />
          </mxGeometry>
        </mxCell>
        <mxCell id="zBCeF6488wJhwsteYWtZ-58" style="edgeStyle=orthogonalEdgeStyle;rounded=0;orthogonalLoop=1;jettySize=auto;html=1;entryX=0.417;entryY=1.027;entryDx=0;entryDy=0;entryPerimeter=0;curved=1;" edge="1" parent="1" source="zBCeF6488wJhwsteYWtZ-33" target="zBCeF6488wJhwsteYWtZ-51">
          <mxGeometry relative="1" as="geometry" />
        </mxCell>
        <mxCell id="zBCeF6488wJhwsteYWtZ-59" value="Approved" style="edgeLabel;html=1;align=center;verticalAlign=middle;resizable=0;points=[];" connectable="0" vertex="1" parent="zBCeF6488wJhwsteYWtZ-58">
          <mxGeometry x="-0.0343" relative="1" as="geometry">
            <mxPoint as="offset" />
          </mxGeometry>
        </mxCell>
        <mxCell id="zBCeF6488wJhwsteYWtZ-72" style="edgeStyle=orthogonalEdgeStyle;rounded=0;orthogonalLoop=1;jettySize=auto;html=1;exitX=1;exitY=1;exitDx=0;exitDy=0;curved=1;entryX=0.5;entryY=0;entryDx=0;entryDy=0;" edge="1" parent="1" source="zBCeF6488wJhwsteYWtZ-64" target="zBCeF6488wJhwsteYWtZ-52">
          <mxGeometry relative="1" as="geometry">
            <Array as="points">
              <mxPoint x="920" y="-20" />
              <mxPoint x="920" y="170" />
              <mxPoint x="865" y="170" />
            </Array>
          </mxGeometry>
        </mxCell>
        <mxCell id="zBCeF6488wJhwsteYWtZ-73" value="Check available recipes" style="edgeLabel;html=1;align=center;verticalAlign=middle;resizable=0;points=[];" connectable="0" vertex="1" parent="zBCeF6488wJhwsteYWtZ-72">
          <mxGeometry x="-0.0727" y="-33" relative="1" as="geometry">
            <mxPoint as="offset" />
          </mxGeometry>
        </mxCell>
        <mxCell id="zBCeF6488wJhwsteYWtZ-78" style="edgeStyle=orthogonalEdgeStyle;rounded=0;orthogonalLoop=1;jettySize=auto;html=1;exitX=0;exitY=0;exitDx=0;exitDy=0;entryX=1.055;entryY=0.495;entryDx=0;entryDy=0;curved=1;entryPerimeter=0;" edge="1" parent="1" source="zBCeF6488wJhwsteYWtZ-64" target="zBCeF6488wJhwsteYWtZ-77">
          <mxGeometry relative="1" as="geometry">
            <Array as="points">
              <mxPoint x="485" y="-80" />
              <mxPoint x="377" y="-80" />
              <mxPoint x="377" y="-60" />
              <mxPoint x="330" y="-60" />
              <mxPoint x="330" y="-65" />
            </Array>
          </mxGeometry>
        </mxCell>
        <mxCell id="zBCeF6488wJhwsteYWtZ-80" value="Store generated recipe" style="edgeLabel;html=1;align=center;verticalAlign=middle;resizable=0;points=[];" connectable="0" vertex="1" parent="zBCeF6488wJhwsteYWtZ-78">
          <mxGeometry x="-0.0247" y="-1" relative="1" as="geometry">
            <mxPoint x="-11" y="11" as="offset" />
          </mxGeometry>
        </mxCell>
        <mxCell id="zBCeF6488wJhwsteYWtZ-64" value="Generate customer request" style="ellipse;whiteSpace=wrap;html=1;" vertex="1" parent="1">
          <mxGeometry x="465" y="-80" width="140" height="70" as="geometry" />
        </mxCell>
        <mxCell id="zBCeF6488wJhwsteYWtZ-69" style="edgeStyle=orthogonalEdgeStyle;rounded=0;orthogonalLoop=1;jettySize=auto;html=1;entryX=0.81;entryY=0.059;entryDx=0;entryDy=0;entryPerimeter=0;curved=1;exitX=0.25;exitY=0;exitDx=0;exitDy=0;" edge="1" parent="1" source="zBCeF6488wJhwsteYWtZ-52" target="zBCeF6488wJhwsteYWtZ-2">
          <mxGeometry relative="1" as="geometry">
            <mxPoint x="880" y="190" as="sourcePoint" />
            <Array as="points">
              <mxPoint x="838" y="150" />
              <mxPoint x="880" y="150" />
              <mxPoint x="880" y="30" />
              <mxPoint x="393" y="30" />
            </Array>
          </mxGeometry>
        </mxCell>
        <mxCell id="zBCeF6488wJhwsteYWtZ-70" value="Change appearance of Restaurant" style="edgeLabel;html=1;align=center;verticalAlign=middle;resizable=0;points=[];" connectable="0" vertex="1" parent="zBCeF6488wJhwsteYWtZ-69">
          <mxGeometry x="0.0867" y="9" relative="1" as="geometry">
            <mxPoint x="9" y="-9" as="offset" />
          </mxGeometry>
        </mxCell>
        <mxCell id="zBCeF6488wJhwsteYWtZ-74" style="edgeStyle=orthogonalEdgeStyle;rounded=0;orthogonalLoop=1;jettySize=auto;html=1;exitX=0.75;exitY=0;exitDx=0;exitDy=0;entryX=1.004;entryY=0.614;entryDx=0;entryDy=0;entryPerimeter=0;curved=1;" edge="1" parent="1" source="zBCeF6488wJhwsteYWtZ-52" target="zBCeF6488wJhwsteYWtZ-64">
          <mxGeometry relative="1" as="geometry">
            <Array as="points">
              <mxPoint x="950" y="190" />
              <mxPoint x="950" y="-60" />
              <mxPoint x="640" y="-60" />
              <mxPoint x="640" y="-37" />
            </Array>
          </mxGeometry>
        </mxCell>
        <mxCell id="zBCeF6488wJhwsteYWtZ-75" value="Send recipe" style="edgeLabel;html=1;align=center;verticalAlign=middle;resizable=0;points=[];" connectable="0" vertex="1" parent="zBCeF6488wJhwsteYWtZ-74">
          <mxGeometry x="-0.5883" y="1" relative="1" as="geometry">
            <mxPoint as="offset" />
          </mxGeometry>
        </mxCell>
        <mxCell id="zBCeF6488wJhwsteYWtZ-83" style="edgeStyle=orthogonalEdgeStyle;rounded=0;orthogonalLoop=1;jettySize=auto;html=1;entryX=0.634;entryY=1.061;entryDx=0;entryDy=0;curved=1;entryPerimeter=0;" edge="1" parent="1" source="zBCeF6488wJhwsteYWtZ-76" target="zBCeF6488wJhwsteYWtZ-82">
          <mxGeometry relative="1" as="geometry" />
        </mxCell>
        <mxCell id="zBCeF6488wJhwsteYWtZ-84" value="Make food" style="edgeLabel;html=1;align=center;verticalAlign=middle;resizable=0;points=[];" connectable="0" vertex="1" parent="zBCeF6488wJhwsteYWtZ-83">
          <mxGeometry x="-0.0949" y="-2" relative="1" as="geometry">
            <mxPoint as="offset" />
          </mxGeometry>
        </mxCell>
        <mxCell id="zBCeF6488wJhwsteYWtZ-85" style="edgeStyle=orthogonalEdgeStyle;rounded=0;orthogonalLoop=1;jettySize=auto;html=1;exitX=1;exitY=1;exitDx=0;exitDy=0;entryX=0.032;entryY=0.725;entryDx=0;entryDy=0;entryPerimeter=0;curved=1;" edge="1" parent="1" source="zBCeF6488wJhwsteYWtZ-76" target="zBCeF6488wJhwsteYWtZ-86">
          <mxGeometry relative="1" as="geometry">
            <mxPoint x="820" y="-110" as="targetPoint" />
            <Array as="points">
              <mxPoint x="445" y="-110" />
              <mxPoint x="690" y="-110" />
              <mxPoint x="690" y="-100" />
              <mxPoint x="720" y="-100" />
              <mxPoint x="755" y="-99" />
            </Array>
          </mxGeometry>
        </mxCell>
        <mxCell id="zBCeF6488wJhwsteYWtZ-87" value="Request recipe list" style="edgeLabel;html=1;align=center;verticalAlign=middle;resizable=0;points=[];" connectable="0" vertex="1" parent="zBCeF6488wJhwsteYWtZ-85">
          <mxGeometry x="-0.0515" y="1" relative="1" as="geometry">
            <mxPoint x="-1" as="offset" />
          </mxGeometry>
        </mxCell>
        <mxCell id="zBCeF6488wJhwsteYWtZ-76" value="Display cooking screen" style="ellipse;whiteSpace=wrap;html=1;" vertex="1" parent="1">
          <mxGeometry x="325" y="-190" width="140" height="70" as="geometry" />
        </mxCell>
        <mxCell id="zBCeF6488wJhwsteYWtZ-77" value="Selected recipe" style="html=1;whiteSpace=wrap;" vertex="1" parent="1">
          <mxGeometry x="200" y="-150" width="110" height="50" as="geometry" />
        </mxCell>
        <mxCell id="zBCeF6488wJhwsteYWtZ-79" style="edgeStyle=orthogonalEdgeStyle;rounded=0;orthogonalLoop=1;jettySize=auto;html=1;exitX=0.446;exitY=-0.013;exitDx=0;exitDy=0;entryX=0.246;entryY=0.948;entryDx=0;entryDy=0;entryPerimeter=0;curved=1;exitPerimeter=0;" edge="1" parent="1" source="zBCeF6488wJhwsteYWtZ-64" target="zBCeF6488wJhwsteYWtZ-76">
          <mxGeometry relative="1" as="geometry" />
        </mxCell>
        <mxCell id="zBCeF6488wJhwsteYWtZ-81" value="Continue" style="edgeLabel;html=1;align=center;verticalAlign=middle;resizable=0;points=[];" connectable="0" vertex="1" parent="zBCeF6488wJhwsteYWtZ-79">
          <mxGeometry x="-0.3451" y="-6" relative="1" as="geometry">
            <mxPoint as="offset" />
          </mxGeometry>
        </mxCell>
        <mxCell id="zBCeF6488wJhwsteYWtZ-95" style="edgeStyle=orthogonalEdgeStyle;rounded=0;orthogonalLoop=1;jettySize=auto;html=1;entryX=0.5;entryY=1;entryDx=0;entryDy=0;curved=1;" edge="1" parent="1" source="zBCeF6488wJhwsteYWtZ-82" target="zBCeF6488wJhwsteYWtZ-94">
          <mxGeometry relative="1" as="geometry" />
        </mxCell>
        <mxCell id="zBCeF6488wJhwsteYWtZ-96" value="&amp;nbsp;" style="edgeLabel;html=1;align=center;verticalAlign=middle;resizable=0;points=[];" connectable="0" vertex="1" parent="zBCeF6488wJhwsteYWtZ-95">
          <mxGeometry x="-0.0278" y="1" relative="1" as="geometry">
            <mxPoint as="offset" />
          </mxGeometry>
        </mxCell>
        <mxCell id="zBCeF6488wJhwsteYWtZ-97" value="Send result" style="edgeLabel;html=1;align=center;verticalAlign=middle;resizable=0;points=[];" connectable="0" vertex="1" parent="zBCeF6488wJhwsteYWtZ-95">
          <mxGeometry x="-0.0833" y="-2" relative="1" as="geometry">
            <mxPoint as="offset" />
          </mxGeometry>
        </mxCell>
        <mxCell id="zBCeF6488wJhwsteYWtZ-82" value="Verify correct recipe made" style="ellipse;whiteSpace=wrap;html=1;" vertex="1" parent="1">
          <mxGeometry x="210" y="-290" width="140" height="70" as="geometry" />
        </mxCell>
        <mxCell id="zBCeF6488wJhwsteYWtZ-86" value="Display recipes" style="ellipse;whiteSpace=wrap;html=1;" vertex="1" parent="1">
          <mxGeometry x="750" y="-210" width="140" height="70" as="geometry" />
        </mxCell>
        <mxCell id="zBCeF6488wJhwsteYWtZ-88" style="edgeStyle=orthogonalEdgeStyle;rounded=0;orthogonalLoop=1;jettySize=auto;html=1;entryX=0.746;entryY=0.963;entryDx=0;entryDy=0;entryPerimeter=0;curved=1;exitX=1;exitY=0.5;exitDx=0;exitDy=0;" edge="1" parent="1" source="zBCeF6488wJhwsteYWtZ-52" target="zBCeF6488wJhwsteYWtZ-86">
          <mxGeometry relative="1" as="geometry">
            <Array as="points">
              <mxPoint x="1040" y="215" />
              <mxPoint x="1040" y="10" />
              <mxPoint x="974" y="10" />
            </Array>
          </mxGeometry>
        </mxCell>
        <mxCell id="zBCeF6488wJhwsteYWtZ-89" value="Show available recipes" style="edgeLabel;html=1;align=center;verticalAlign=middle;resizable=0;points=[];" connectable="0" vertex="1" parent="zBCeF6488wJhwsteYWtZ-88">
          <mxGeometry x="-0.0088" y="-2" relative="1" as="geometry">
            <mxPoint as="offset" />
          </mxGeometry>
        </mxCell>
        <mxCell id="zBCeF6488wJhwsteYWtZ-90" style="edgeStyle=orthogonalEdgeStyle;rounded=0;orthogonalLoop=1;jettySize=auto;html=1;exitX=0;exitY=0;exitDx=0;exitDy=0;entryX=1;entryY=0.714;entryDx=0;entryDy=0;entryPerimeter=0;curved=1;" edge="1" parent="1" source="zBCeF6488wJhwsteYWtZ-86" target="zBCeF6488wJhwsteYWtZ-76">
          <mxGeometry relative="1" as="geometry" />
        </mxCell>
        <mxCell id="zBCeF6488wJhwsteYWtZ-91" value="Return" style="edgeLabel;html=1;align=center;verticalAlign=middle;resizable=0;points=[];" connectable="0" vertex="1" parent="zBCeF6488wJhwsteYWtZ-90">
          <mxGeometry x="0.099" y="3" relative="1" as="geometry">
            <mxPoint as="offset" />
          </mxGeometry>
        </mxCell>
        <mxCell id="zBCeF6488wJhwsteYWtZ-116" style="edgeStyle=orthogonalEdgeStyle;rounded=0;orthogonalLoop=1;jettySize=auto;html=1;entryX=0.5;entryY=0;entryDx=0;entryDy=0;curved=1;" edge="1" parent="1" source="zBCeF6488wJhwsteYWtZ-93" target="zBCeF6488wJhwsteYWtZ-113">
          <mxGeometry relative="1" as="geometry" />
        </mxCell>
        <mxCell id="zBCeF6488wJhwsteYWtZ-117" value="Send total results" style="edgeLabel;html=1;align=center;verticalAlign=middle;resizable=0;points=[];" connectable="0" vertex="1" parent="zBCeF6488wJhwsteYWtZ-116">
          <mxGeometry x="-0.1727" y="-12" relative="1" as="geometry">
            <mxPoint as="offset" />
          </mxGeometry>
        </mxCell>
        <mxCell id="zBCeF6488wJhwsteYWtZ-93" value="Daily results" style="html=1;whiteSpace=wrap;" vertex="1" parent="1">
          <mxGeometry x="340" y="-470" width="110" height="50" as="geometry" />
        </mxCell>
        <mxCell id="zBCeF6488wJhwsteYWtZ-104" style="edgeStyle=orthogonalEdgeStyle;rounded=0;orthogonalLoop=1;jettySize=auto;html=1;entryX=0;entryY=0.5;entryDx=0;entryDy=0;exitX=0.5;exitY=0;exitDx=0;exitDy=0;curved=1;" edge="1" parent="1" source="zBCeF6488wJhwsteYWtZ-94" target="zBCeF6488wJhwsteYWtZ-93">
          <mxGeometry relative="1" as="geometry" />
        </mxCell>
        <mxCell id="zBCeF6488wJhwsteYWtZ-105" value="Log result" style="edgeLabel;html=1;align=center;verticalAlign=middle;resizable=0;points=[];" connectable="0" vertex="1" parent="zBCeF6488wJhwsteYWtZ-104">
          <mxGeometry x="0.0681" y="-14" relative="1" as="geometry">
            <mxPoint x="1" as="offset" />
          </mxGeometry>
        </mxCell>
        <mxCell id="zBCeF6488wJhwsteYWtZ-114" style="edgeStyle=orthogonalEdgeStyle;rounded=0;orthogonalLoop=1;jettySize=auto;html=1;entryX=0;entryY=0.5;entryDx=0;entryDy=0;curved=1;" edge="1" parent="1" source="zBCeF6488wJhwsteYWtZ-94" target="zBCeF6488wJhwsteYWtZ-113">
          <mxGeometry relative="1" as="geometry" />
        </mxCell>
        <mxCell id="zBCeF6488wJhwsteYWtZ-115" value="Cycle finished" style="edgeLabel;html=1;align=center;verticalAlign=middle;resizable=0;points=[];" connectable="0" vertex="1" parent="zBCeF6488wJhwsteYWtZ-114">
          <mxGeometry x="0.0095" relative="1" as="geometry">
            <mxPoint as="offset" />
          </mxGeometry>
        </mxCell>
        <mxCell id="zBCeF6488wJhwsteYWtZ-94" value="Display result" style="ellipse;whiteSpace=wrap;html=1;" vertex="1" parent="1">
          <mxGeometry x="150" y="-400" width="140" height="70" as="geometry" />
        </mxCell>
        <mxCell id="zBCeF6488wJhwsteYWtZ-108" style="edgeStyle=orthogonalEdgeStyle;rounded=0;orthogonalLoop=1;jettySize=auto;html=1;exitX=0;exitY=1;exitDx=0;exitDy=0;entryX=0.447;entryY=-0.027;entryDx=0;entryDy=0;entryPerimeter=0;" edge="1" parent="1" source="zBCeF6488wJhwsteYWtZ-82" target="zBCeF6488wJhwsteYWtZ-77">
          <mxGeometry relative="1" as="geometry" />
        </mxCell>
        <mxCell id="zBCeF6488wJhwsteYWtZ-109" value="Verify recipe" style="edgeLabel;html=1;align=center;verticalAlign=middle;resizable=0;points=[];" connectable="0" vertex="1" parent="zBCeF6488wJhwsteYWtZ-108">
          <mxGeometry x="0.0945" relative="1" as="geometry">
            <mxPoint as="offset" />
          </mxGeometry>
        </mxCell>
        <mxCell id="zBCeF6488wJhwsteYWtZ-111" style="edgeStyle=orthogonalEdgeStyle;rounded=0;orthogonalLoop=1;jettySize=auto;html=1;entryX=-0.014;entryY=0.67;entryDx=0;entryDy=0;entryPerimeter=0;curved=1;" edge="1" parent="1" source="zBCeF6488wJhwsteYWtZ-94" target="zBCeF6488wJhwsteYWtZ-64">
          <mxGeometry relative="1" as="geometry">
            <Array as="points">
              <mxPoint x="130" y="-365" />
              <mxPoint x="130" />
              <mxPoint x="400" />
              <mxPoint x="400" y="-33" />
            </Array>
          </mxGeometry>
        </mxCell>
        <mxCell id="zBCeF6488wJhwsteYWtZ-112" value="Cycle next order" style="edgeLabel;html=1;align=center;verticalAlign=middle;resizable=0;points=[];" connectable="0" vertex="1" parent="zBCeF6488wJhwsteYWtZ-111">
          <mxGeometry x="-0.5516" relative="1" as="geometry">
            <mxPoint as="offset" />
          </mxGeometry>
        </mxCell>
        <mxCell id="zBCeF6488wJhwsteYWtZ-120" style="edgeStyle=orthogonalEdgeStyle;rounded=0;orthogonalLoop=1;jettySize=auto;html=1;entryX=1;entryY=0.75;entryDx=0;entryDy=0;curved=1;exitX=1.015;exitY=0.455;exitDx=0;exitDy=0;exitPerimeter=0;" edge="1" parent="1" source="zBCeF6488wJhwsteYWtZ-113" target="zBCeF6488wJhwsteYWtZ-33">
          <mxGeometry relative="1" as="geometry">
            <Array as="points">
              <mxPoint x="640" y="-258" />
              <mxPoint x="640" y="-345" />
              <mxPoint x="1110" y="-345" />
              <mxPoint x="1110" y="428" />
            </Array>
          </mxGeometry>
        </mxCell>
        <mxCell id="zBCeF6488wJhwsteYWtZ-121" value="Update Currency amount" style="edgeLabel;html=1;align=center;verticalAlign=middle;resizable=0;points=[];" connectable="0" vertex="1" parent="zBCeF6488wJhwsteYWtZ-120">
          <mxGeometry x="-0.6695" y="-59" relative="1" as="geometry">
            <mxPoint x="-37" y="-54" as="offset" />
          </mxGeometry>
        </mxCell>
        <mxCell id="zBCeF6488wJhwsteYWtZ-113" value="Display Daily Results" style="ellipse;whiteSpace=wrap;html=1;" vertex="1" parent="1">
          <mxGeometry x="460" y="-290" width="140" height="70" as="geometry" />
        </mxCell>
        <mxCell id="zBCeF6488wJhwsteYWtZ-118" style="edgeStyle=orthogonalEdgeStyle;rounded=0;orthogonalLoop=1;jettySize=auto;html=1;entryX=0.357;entryY=0;entryDx=0;entryDy=0;entryPerimeter=0;curved=1;exitX=0.779;exitY=0.043;exitDx=0;exitDy=0;exitPerimeter=0;" edge="1" parent="1" source="zBCeF6488wJhwsteYWtZ-113" target="zBCeF6488wJhwsteYWtZ-2">
          <mxGeometry relative="1" as="geometry">
            <Array as="points">
              <mxPoint x="609" y="-400" />
              <mxPoint x="570" y="-400" />
              <mxPoint x="570" y="-540" />
              <mxPoint x="50" y="-540" />
              <mxPoint x="50" y="90" />
              <mxPoint x="330" y="90" />
            </Array>
          </mxGeometry>
        </mxCell>
        <mxCell id="zBCeF6488wJhwsteYWtZ-119" value="Return to Restaurant" style="edgeLabel;html=1;align=center;verticalAlign=middle;resizable=0;points=[];" connectable="0" vertex="1" parent="zBCeF6488wJhwsteYWtZ-118">
          <mxGeometry x="-0.7153" y="26" relative="1" as="geometry">
            <mxPoint as="offset" />
          </mxGeometry>
        </mxCell>
      </root>
    </mxGraphModel>
  </diagram>
</mxfile>
